<svg xmlns="http://www.w3.org/2000/svg" viewBox="0 0 58 58"><path d="M53 44V27.5C53 17.299 44.698 9 34.494 9H23.506C13.302 9 5 17.299 5 27.5V44H0v2h10v2a1 1 0 0 0 1 1h11a1 1 0 0 0 1-1v-2h12v2a1 1 0 0 0 1 1h11a1 1 0 0 0 1-1v-2h10v-2h-5zm-32 3h-2v-3h-2v3h-1v-3h-2v3h-2v-2c0-1.103.899-2 2.006-2h4.988c1.107 0 2.006.897 2.006 2v2zm25 0h-2v-3h-2v3h-1v-3h-2v3h-2v-2c0-1.103.899-2 2.006-2h4.988c1.107 0 2.006.897 2.006 2v2zm1.858-3c-.448-1.72-2.002-3-3.864-3h-4.988c-1.861 0-3.416 1.28-3.864 3H22.858c-.448-1.72-2.003-3-3.864-3h-4.988c-1.861 0-3.416 1.28-3.864 3H7V27.5C7 18.402 14.404 11 23.506 11h10.988C43.596 11 51 18.402 51 27.5V44h-3.142z"/><path d="M21 26c-3.309 0-6 2.691-6 6v1h2v-1c0-2.206 1.794-4 4-4a3.97 3.97 0 0 1 2.66 1.034A2 2 0 0 0 22 31c0 1.103.897 2 2 2 .366 0 .705-.106 1-.278V33h2v-1c0-3.309-2.691-6-6-6zm18 0c-3.309 0-6 2.691-6 6v1h2v-1c0-2.206 1.794-4 4-4a3.97 3.97 0 0 1 2.66 1.034A2 2 0 0 0 40 31c0 1.103.897 2 2 2 .366 0 .705-.106 1-.278V33h2v-1c0-3.309-2.691-6-6-6z"/></svg>